ply
format ascii 1.0
element vertex 400
property float x
property float y
property float z
property float nx
property float ny
property float nz
property uchar red
property uchar green
property uchar blue
end_header
-1.000000 -1.000000 0.000000 0.000000 0.000000 1.000000 255 0 0
-0.894737 -1.000000 0.000000 0.000000 0.000000 1.000000 255 0 0
-0.789474 -1.000000 0.000000 0.000000 0.000000 1.000000 255 1 0
-0.684211 -1.000000 0.000000 0.000000 0.000000 1.000000 255 1 0
-0.578947 -1.000000 0.000000 0.000000 0.000000 1.000000 255 2 0
-0.473684 -1.000000 0.000000 0.000000 0.000000 1.000000 255 3 0
-0.368421 -1.000000 0.000000 0.000000 0.000000 1.000000 255 3 0
-0.263158 -1.000000 0.000000 0.000000 0.000000 1.000000 255 4 0
-0.157895 -1.000000 0.000000 0.000000 0.000000 1.000000 255 5 0
-0.052632 -1.000000 0.000000 0.000000 0.000000 1.000000 255 5 0
0.052632 -1.000000 0.000000 0.000000 0.000000 1.000000 255 6 0
0.157895 -1.000000 0.000000 0.000000 0.000000 1.000000 255 7 0
0.263158 -1.000000 0.000000 0.000000 0.000000 1.000000 255 7 0
0.368421 -1.000000 0.000000 0.000000 0.000000 1.000000 255 8 0
0.473684 -1.000000 0.000000 0.000000 0.000000 1.000000 255 8 0
0.578947 -1.000000 0.000000 0.000000 0.000000 1.000000 255 9 0
0.684211 -1.000000 0.000000 0.000000 0.000000 1.000000 255 10 0
0.789474 -1.000000 0.000000 0.000000 0.000000 1.000000 255 10 0
0.894737 -1.000000 0.000000 0.000000 0.000000 1.000000 255 11 0
1.000000 -1.000000 0.000000 0.000000 0.000000 1.000000 255 12 0
-1.000000 -0.894737 0.000000 0.000000 0.000000 1.000000 255 12 0
-0.894737 -0.894737 0.000000 0.000000 0.000000 1.000000 255 13 0
-0.789474 -0.894737 0.000000 0.000000 0.000000 1.000000 255 14 0
-0.684211 -0.894737 0.000000 0.000000 0.000000 1.000000 255 14 0
-0.578947 -0.894737 0.000000 0.000000 0.000000 1.000000 255 15 0
-0.473684 -0.894737 0.000000 0.000000 0.000000 1.000000 255 15 0
-0.368421 -0.894737 0.000000 0.000000 0.000000 1.000000 255 16 0
-0.263158 -0.894737 0.000000 0.000000 0.000000 1.000000 255 17 0
-0.157895 -0.894737 0.000000 0.000000 0.000000 1.000000 255 17 0
-0.052632 -0.894737 0.000000 0.000000 0.000000 1.000000 255 18 0
0.052632 -0.894737 0.000000 0.000000 0.000000 1.000000 255 19 0
0.157895 -0.894737 0.000000 0.000000 0.000000 1.000000 255 19 0
0.263158 -0.894737 0.000000 0.000000 0.000000 1.000000 255 20 0
0.368421 -0.894737 0.000000 0.000000 0.000000 1.000000 255 21 0
0.473684 -0.894737 0.000000 0.000000 0.000000 1.000000 255 21 0
0.578947 -0.894737 0.000000 0.000000 0.000000 1.000000 255 22 0
0.684211 -0.894737 0.000000 0.000000 0.000000 1.000000 255 23 0
0.789474 -0.894737 0.000000 0.000000 0.000000 1.000000 255 23 0
0.894737 -0.894737 0.000000 0.000000 0.000000 1.000000 255 24 0
1.000000 -0.894737 0.000000 0.000000 0.000000 1.000000 255 24 0
-1.000000 -0.789474 0.000000 0.000000 0.000000 1.000000 255 25 0
-0.894737 -0.789474 0.000000 0.000000 0.000000 1.000000 255 26 0
-0.789474 -0.789474 0.000000 0.000000 0.000000 1.000000 255 26 0
-0.684211 -0.789474 0.000000 0.000000 0.000000 1.000000 255 27 0
-0.578947 -0.789474 0.000000 0.000000 0.000000 1.000000 255 28 0
-0.473684 -0.789474 0.000000 0.000000 0.000000 1.000000 255 28 0
-0.368421 -0.789474 0.000000 0.000000 0.000000 1.000000 255 29 0
-0.263158 -0.789474 0.000000 0.000000 0.000000 1.000000 255 30 0
-0.157895 -0.789474 0.000000 0.000000 0.000000 1.000000 255 30 0
-0.052632 -0.789474 0.000000 0.000000 0.000000 1.000000 255 31 0
0.052632 -0.789474 0.000000 0.000000 0.000000 1.000000 255 31 0
0.157895 -0.789474 0.000000 0.000000 0.000000 1.000000 255 32 0
0.263158 -0.789474 0.000000 0.000000 0.000000 1.000000 255 33 0
0.368421 -0.789474 0.000000 0.000000 0.000000 1.000000 255 33 0
0.473684 -0.789474 0.000000 0.000000 0.000000 1.000000 255 34 0
0.578947 -0.789474 0.000000 0.000000 0.000000 1.000000 255 35 0
0.684211 -0.789474 0.000000 0.000000 0.000000 1.000000 255 35 0
0.789474 -0.789474 0.000000 0.000000 0.000000 1.000000 255 36 0
0.894737 -0.789474 0.000000 0.000000 0.000000 1.000000 255 37 0
1.000000 -0.789474 0.000000 0.000000 0.000000 1.000000 255 37 0
-1.000000 -0.684211 0.000000 0.000000 0.000000 1.000000 255 38 0
-0.894737 -0.684211 0.000000 0.000000 0.000000 1.000000 255 38 0
-0.789474 -0.684211 0.000000 0.000000 0.000000 1.000000 255 39 0
-0.684211 -0.684211 0.000000 0.000000 0.000000 1.000000 255 40 0
-0.578947 -0.684211 0.000000 0.000000 0.000000 1.000000 255 40 0
-0.473684 -0.684211 0.000000 0.000000 0.000000 1.000000 255 41 0
-0.368421 -0.684211 0.000000 0.000000 0.000000 1.000000 255 42 0
-0.263158 -0.684211 0.000000 0.000000 0.000000 1.000000 255 42 0
-0.157895 -0.684211 0.000000 0.000000 0.000000 1.000000 255 43 0
-0.052632 -0.684211 0.000000 0.000000 0.000000 1.000000 255 44 0
0.052632 -0.684211 0.000000 0.000000 0.000000 1.000000 255 44 0
0.157895 -0.684211 0.000000 0.000000 0.000000 1.000000 255 45 0
0.263158 -0.684211 0.000000 0.000000 0.000000 1.000000 255 46 0
0.368421 -0.684211 0.000000 0.000000 0.000000 1.000000 255 46 0
0.473684 -0.684211 0.000000 0.000000 0.000000 1.000000 255 47 0
0.578947 -0.684211 0.000000 0.000000 0.000000 1.000000 255 47 0
0.684211 -0.684211 0.000000 0.000000 0.000000 1.000000 255 48 0
0.789474 -0.684211 0.000000 0.000000 0.000000 1.000000 255 49 0
0.894737 -0.684211 0.000000 0.000000 0.000000 1.000000 255 49 0
1.000000 -0.684211 0.000000 0.000000 0.000000 1.000000 255 50 0
-1.000000 -0.578947 0.000000 0.000000 0.000000 1.000000 255 51 0
-0.894737 -0.578947 0.000000 0.000000 0.000000 1.000000 255 51 0
-0.789474 -0.578947 0.000000 0.000000 0.000000 1.000000 255 52 0
-0.684211 -0.578947 0.000000 0.000000 0.000000 1.000000 255 53 0
-0.578947 -0.578947 0.000000 0.000000 0.000000 1.000000 255 53 0
-0.473684 -0.578947 0.000000 0.000000 0.000000 1.000000 255 54 0
-0.368421 -0.578947 0.000000 0.000000 0.000000 1.000000 255 54 0
-0.263158 -0.578947 0.000000 0.000000 0.000000 1.000000 255 55 0
-0.157895 -0.578947 0.000000 0.000000 0.000000 1.000000 255 56 0
-0.052632 -0.578947 0.000000 0.000000 0.000000 1.000000 255 56 0
0.052632 -0.578947 0.000000 0.000000 0.000000 1.000000 255 57 0
0.157895 -0.578947 0.000000 0.000000 0.000000 1.000000 255 58 0
0.263158 -0.578947 0.000000 0.000000 0.000000 1.000000 255 58 0
0.368421 -0.578947 0.000000 0.000000 0.000000 1.000000 255 59 0
0.473684 -0.578947 0.000000 0.000000 0.000000 1.000000 255 60 0
0.578947 -0.578947 0.000000 0.000000 0.000000 1.000000 255 60 0
0.684211 -0.578947 0.000000 0.000000 0.000000 1.000000 255 61 0
0.789474 -0.578947 0.000000 0.000000 0.000000 1.000000 255 61 0
0.894737 -0.578947 0.000000 0.000000 0.000000 1.000000 255 62 0
1.000000 -0.578947 0.000000 0.000000 0.000000 1.000000 255 63 0
-1.000000 -0.473684 0.000000 0.000000 0.000000 1.000000 255 63 0
-0.894737 -0.473684 0.000000 0.000000 0.000000 1.000000 255 64 0
-0.789474 -0.473684 0.000000 0.000000 0.000000 1.000000 255 65 0
-0.684211 -0.473684 0.000000 0.000000 0.000000 1.000000 255 65 0
-0.578947 -0.473684 0.000000 0.000000 0.000000 1.000000 255 66 0
-0.473684 -0.473684 0.000000 0.000000 0.000000 1.000000 255 67 0
-0.368421 -0.473684 0.000000 0.000000 0.000000 1.000000 255 67 0
-0.263158 -0.473684 0.000000 0.000000 0.000000 1.000000 255 68 0
-0.157895 -0.473684 0.000000 0.000000 0.000000 1.000000 255 69 0
-0.052632 -0.473684 0.000000 0.000000 0.000000 1.000000 255 69 0
0.052632 -0.473684 0.000000 0.000000 0.000000 1.000000 255 70 0
0.157895 -0.473684 0.000000 0.000000 0.000000 1.000000 255 70 0
0.263158 -0.473684 0.000000 0.000000 0.000000 1.000000 255 71 0
0.368421 -0.473684 0.000000 0.000000 0.000000 1.000000 255 72 0
0.473684 -0.473684 0.000000 0.000000 0.000000 1.000000 255 72 0
0.578947 -0.473684 0.000000 0.000000 0.000000 1.000000 255 73 0
0.684211 -0.473684 0.000000 0.000000 0.000000 1.000000 255 74 0
0.789474 -0.473684 0.000000 0.000000 0.000000 1.000000 255 74 0
0.894737 -0.473684 0.000000 0.000000 0.000000 1.000000 255 75 0
1.000000 -0.473684 0.000000 0.000000 0.000000 1.000000 255 76 0
-1.000000 -0.368421 0.000000 0.000000 0.000000 1.000000 255 76 0
-0.894737 -0.368421 0.000000 0.000000 0.000000 1.000000 255 77 0
-0.789474 -0.368421 0.000000 0.000000 0.000000 1.000000 255 77 0
-0.684211 -0.368421 0.000000 0.000000 0.000000 1.000000 255 78 0
-0.578947 -0.368421 0.000000 0.000000 0.000000 1.000000 255 79 0
-0.473684 -0.368421 0.000000 0.000000 0.000000 1.000000 255 79 0
-0.368421 -0.368421 0.000000 0.000000 0.000000 1.000000 255 80 0
-0.263158 -0.368421 0.000000 0.000000 0.000000 1.000000 255 81 0
-0.157895 -0.368421 0.000000 0.000000 0.000000 1.000000 255 81 0
-0.052632 -0.368421 0.000000 0.000000 0.000000 1.000000 255 82 0
0.052632 -0.368421 0.000000 0.000000 0.000000 1.000000 255 83 0
0.157895 -0.368421 0.000000 0.000000 0.000000 1.000000 255 83 0
0.263158 -0.368421 0.000000 0.000000 0.000000 1.000000 255 84 0
0.368421 -0.368421 0.000000 0.000000 0.000000 1.000000 255 85 0
0.473684 -0.368421 0.000000 0.000000 0.000000 1.000000 255 85 0
0.578947 -0.368421 0.000000 0.000000 0.000000 1.000000 255 86 0
0.684211 -0.368421 0.000000 0.000000 0.000000 1.000000 255 86 0
0.789474 -0.368421 0.000000 0.000000 0.000000 1.000000 255 87 0
0.894737 -0.368421 0.000000 0.000000 0.000000 1.000000 255 88 0
1.000000 -0.368421 0.000000 0.000000 0.000000 1.000000 255 88 0
-1.000000 -0.263158 0.000000 0.000000 0.000000 1.000000 255 89 0
-0.894737 -0.263158 0.000000 0.000000 0.000000 1.000000 255 90 0
-0.789474 -0.263158 0.000000 0.000000 0.000000 1.000000 255 90 0
-0.684211 -0.263158 0.000000 0.000000 0.000000 1.000000 255 91 0
-0.578947 -0.263158 0.000000 0.000000 0.000000 1.000000 255 92 0
-0.473684 -0.263158 0.000000 0.000000 0.000000 1.000000 255 92 0
-0.368421 -0.263158 0.000000 0.000000 0.000000 1.000000 255 93 0
-0.263158 -0.263158 0.000000 0.000000 0.000000 1.000000 255 93 0
-0.157895 -0.263158 0.000000 0.000000 0.000000 1.000000 255 94 0
-0.052632 -0.263158 0.000000 0.000000 0.000000 1.000000 255 95 0
0.052632 -0.263158 0.000000 0.000000 0.000000 1.000000 255 95 0
0.157895 -0.263158 0.000000 0.000000 0.000000 1.000000 255 96 0
0.263158 -0.263158 0.000000 0.000000 0.000000 1.000000 255 97 0
0.368421 -0.263158 0.000000 0.000000 0.000000 1.000000 255 97 0
0.473684 -0.263158 0.000000 0.000000 0.000000 1.000000 255 98 0
0.578947 -0.263158 0.000000 0.000000 0.000000 1.000000 255 99 0
0.684211 -0.263158 0.000000 0.000000 0.000000 1.000000 255 99 0
0.789474 -0.263158 0.000000 0.000000 0.000000 1.000000 255 100 0
0.894737 -0.263158 0.000000 0.000000 0.000000 1.000000 255 100 0
1.000000 -0.263158 0.000000 0.000000 0.000000 1.000000 255 101 0
-1.000000 -0.157895 0.000000 0.000000 0.000000 1.000000 255 102 0
-0.894737 -0.157895 0.000000 0.000000 0.000000 1.000000 255 102 0
-0.789474 -0.157895 0.000000 0.000000 0.000000 1.000000 255 103 0
-0.684211 -0.157895 0.000000 0.000000 0.000000 1.000000 255 104 0
-0.578947 -0.157895 0.000000 0.000000 0.000000 1.000000 255 104 0
-0.473684 -0.157895 0.000000 0.000000 0.000000 1.000000 255 105 0
-0.368421 -0.157895 0.000000 0.000000 0.000000 1.000000 255 106 0
-0.263158 -0.157895 0.000000 0.000000 0.000000 1.000000 255 106 0
-0.157895 -0.157895 0.000000 0.000000 0.000000 1.000000 255 107 0
-0.052632 -0.157895 0.000000 0.000000 0.000000 1.000000 255 108 0
0.052632 -0.157895 0.000000 0.000000 0.000000 1.000000 255 108 0
0.157895 -0.157895 0.000000 0.000000 0.000000 1.000000 255 109 0
0.263158 -0.157895 0.000000 0.000000 0.000000 1.000000 255 109 0
0.368421 -0.157895 0.000000 0.000000 0.000000 1.000000 255 110 0
0.473684 -0.157895 0.000000 0.000000 0.000000 1.000000 255 111 0
0.578947 -0.157895 0.000000 0.000000 0.000000 1.000000 255 111 0
0.684211 -0.157895 0.000000 0.000000 0.000000 1.000000 255 112 0
0.789474 -0.157895 0.000000 0.000000 0.000000 1.000000 255 113 0
0.894737 -0.157895 0.000000 0.000000 0.000000 1.000000 255 113 0
1.000000 -0.157895 0.000000 0.000000 0.000000 1.000000 255 114 0
-1.000000 -0.052632 0.000000 0.000000 0.000000 1.000000 255 115 0
-0.894737 -0.052632 0.000000 0.000000 0.000000 1.000000 255 115 0
-0.789474 -0.052632 0.000000 0.000000 0.000000 1.000000 255 116 0
-0.684211 -0.052632 0.000000 0.000000 0.000000 1.000000 255 116 0
-0.578947 -0.052632 0.000000 0.000000 0.000000 1.000000 255 117 0
-0.473684 -0.052632 0.000000 0.000000 0.000000 1.000000 255 118 0
-0.368421 -0.052632 0.000000 0.000000 0.000000 1.000000 255 118 0
-0.263158 -0.052632 0.000000 0.000000 0.000000 1.000000 255 119 0
-0.157895 -0.052632 0.000000 0.000000 0.000000 1.000000 255 120 0
-0.052632 -0.052632 0.000000 0.000000 0.000000 1.000000 255 120 0
0.052632 -0.052632 0.000000 0.000000 0.000000 1.000000 255 121 0
0.157895 -0.052632 0.000000 0.000000 0.000000 1.000000 255 122 0
0.263158 -0.052632 0.000000 0.000000 0.000000 1.000000 255 122 0
0.368421 -0.052632 0.000000 0.000000 0.000000 1.000000 255 123 0
0.473684 -0.052632 0.000000 0.000000 0.000000 1.000000 255 123 0
0.578947 -0.052632 0.000000 0.000000 0.000000 1.000000 255 124 0
0.684211 -0.052632 0.000000 0.000000 0.000000 1.000000 255 125 0
0.789474 -0.052632 0.000000 0.000000 0.000000 1.000000 255 125 0
0.894737 -0.052632 0.000000 0.000000 0.000000 1.000000 255 126 0
1.000000 -0.052632 0.000000 0.000000 0.000000 1.000000 255 127 0
-1.000000 0.052632 0.000000 0.000000 0.000000 1.000000 255 127 0
-0.894737 0.052632 0.000000 0.000000 0.000000 1.000000 255 128 0
-0.789474 0.052632 0.000000 0.000000 0.000000 1.000000 255 129 0
-0.684211 0.052632 0.000000 0.000000 0.000000 1.000000 255 129 0
-0.578947 0.052632 0.000000 0.000000 0.000000 1.000000 255 130 0
-0.473684 0.052632 0.000000 0.000000 0.000000 1.000000 255 131 0
-0.368421 0.052632 0.000000 0.000000 0.000000 1.000000 255 131 0
-0.263158 0.052632 0.000000 0.000000 0.000000 1.000000 255 132 0
-0.157895 0.052632 0.000000 0.000000 0.000000 1.000000 255 132 0
-0.052632 0.052632 0.000000 0.000000 0.000000 1.000000 255 133 0
0.052632 0.052632 0.000000 0.000000 0.000000 1.000000 255 134 0
0.157895 0.052632 0.000000 0.000000 0.000000 1.000000 255 134 0
0.263158 0.052632 0.000000 0.000000 0.000000 1.000000 255 135 0
0.368421 0.052632 0.000000 0.000000 0.000000 1.000000 255 136 0
0.473684 0.052632 0.000000 0.000000 0.000000 1.000000 255 136 0
0.578947 0.052632 0.000000 0.000000 0.000000 1.000000 255 137 0
0.684211 0.052632 0.000000 0.000000 0.000000 1.000000 255 138 0
0.789474 0.052632 0.000000 0.000000 0.000000 1.000000 255 138 0
0.894737 0.052632 0.000000 0.000000 0.000000 1.000000 255 139 0
1.000000 0.052632 0.000000 0.000000 0.000000 1.000000 255 139 0
-1.000000 0.157895 0.000000 0.000000 0.000000 1.000000 255 140 0
-0.894737 0.157895 0.000000 0.000000 0.000000 1.000000 255 141 0
-0.789474 0.157895 0.000000 0.000000 0.000000 1.000000 255 141 0
-0.684211 0.157895 0.000000 0.000000 0.000000 1.000000 255 142 0
-0.578947 0.157895 0.000000 0.000000 0.000000 1.000000 255 143 0
-0.473684 0.157895 0.000000 0.000000 0.000000 1.000000 255 143 0
-0.368421 0.157895 0.000000 0.000000 0.000000 1.000000 255 144 0
-0.263158 0.157895 0.000000 0.000000 0.000000 1.000000 255 145 0
-0.157895 0.157895 0.000000 0.000000 0.000000 1.000000 255 145 0
-0.052632 0.157895 0.000000 0.000000 0.000000 1.000000 255 146 0
0.052632 0.157895 0.000000 0.000000 0.000000 1.000000 255 146 0
0.157895 0.157895 0.000000 0.000000 0.000000 1.000000 255 147 0
0.263158 0.157895 0.000000 0.000000 0.000000 1.000000 255 148 0
0.368421 0.157895 0.000000 0.000000 0.000000 1.000000 255 148 0
0.473684 0.157895 0.000000 0.000000 0.000000 1.000000 255 149 0
0.578947 0.157895 0.000000 0.000000 0.000000 1.000000 255 150 0
0.684211 0.157895 0.000000 0.000000 0.000000 1.000000 255 150 0
0.789474 0.157895 0.000000 0.000000 0.000000 1.000000 255 151 0
0.894737 0.157895 0.000000 0.000000 0.000000 1.000000 255 152 0
1.000000 0.157895 0.000000 0.000000 0.000000 1.000000 255 152 0
-1.000000 0.263158 0.000000 0.000000 0.000000 1.000000 255 153 0
-0.894737 0.263158 0.000000 0.000000 0.000000 1.000000 255 154 0
-0.789474 0.263158 0.000000 0.000000 0.000000 1.000000 255 154 0
-0.684211 0.263158 0.000000 0.000000 0.000000 1.000000 255 155 0
-0.578947 0.263158 0.000000 0.000000 0.000000 1.000000 255 155 0
-0.473684 0.263158 0.000000 0.000000 0.000000 1.000000 255 156 0
-0.368421 0.263158 0.000000 0.000000 0.000000 1.000000 255 157 0
-0.263158 0.263158 0.000000 0.000000 0.000000 1.000000 255 157 0
-0.157895 0.263158 0.000000 0.000000 0.000000 1.000000 255 158 0
-0.052632 0.263158 0.000000 0.000000 0.000000 1.000000 255 159 0
0.052632 0.263158 0.000000 0.000000 0.000000 1.000000 255 159 0
0.157895 0.263158 0.000000 0.000000 0.000000 1.000000 255 160 0
0.263158 0.263158 0.000000 0.000000 0.000000 1.000000 255 161 0
0.368421 0.263158 0.000000 0.000000 0.000000 1.000000 255 161 0
0.473684 0.263158 0.000000 0.000000 0.000000 1.000000 255 162 0
0.578947 0.263158 0.000000 0.000000 0.000000 1.000000 255 162 0
0.684211 0.263158 0.000000 0.000000 0.000000 1.000000 255 163 0
0.789474 0.263158 0.000000 0.000000 0.000000 1.000000 255 164 0
0.894737 0.263158 0.000000 0.000000 0.000000 1.000000 255 164 0
1.000000 0.263158 0.000000 0.000000 0.000000 1.000000 255 165 0
-1.000000 0.368421 0.000000 0.000000 0.000000 1.000000 255 166 0
-0.894737 0.368421 0.000000 0.000000 0.000000 1.000000 255 166 0
-0.789474 0.368421 0.000000 0.000000 0.000000 1.000000 255 167 0
-0.684211 0.368421 0.000000 0.000000 0.000000 1.000000 255 168 0
-0.578947 0.368421 0.000000 0.000000 0.000000 1.000000 255 168 0
-0.473684 0.368421 0.000000 0.000000 0.000000 1.000000 255 169 0
-0.368421 0.368421 0.000000 0.000000 0.000000 1.000000 255 170 0
-0.263158 0.368421 0.000000 0.000000 0.000000 1.000000 255 170 0
-0.157895 0.368421 0.000000 0.000000 0.000000 1.000000 255 171 0
-0.052632 0.368421 0.000000 0.000000 0.000000 1.000000 255 171 0
0.052632 0.368421 0.000000 0.000000 0.000000 1.000000 255 172 0
0.157895 0.368421 0.000000 0.000000 0.000000 1.000000 255 173 0
0.263158 0.368421 0.000000 0.000000 0.000000 1.000000 255 173 0
0.368421 0.368421 0.000000 0.000000 0.000000 1.000000 255 174 0
0.473684 0.368421 0.000000 0.000000 0.000000 1.000000 255 175 0
0.578947 0.368421 0.000000 0.000000 0.000000 1.000000 255 175 0
0.684211 0.368421 0.000000 0.000000 0.000000 1.000000 255 176 0
0.789474 0.368421 0.000000 0.000000 0.000000 1.000000 255 177 0
0.894737 0.368421 0.000000 0.000000 0.000000 1.000000 255 177 0
1.000000 0.368421 0.000000 0.000000 0.000000 1.000000 255 178 0
-1.000000 0.473684 0.000000 0.000000 0.000000 1.000000 255 178 0
-0.894737 0.473684 0.000000 0.000000 0.000000 1.000000 255 179 0
-0.789474 0.473684 0.000000 0.000000 0.000000 1.000000 255 180 0
-0.684211 0.473684 0.000000 0.000000 0.000000 1.000000 255 180 0
-0.578947 0.473684 0.000000 0.000000 0.000000 1.000000 255 181 0
-0.473684 0.473684 0.000000 0.000000 0.000000 1.000000 255 182 0
-0.368421 0.473684 0.000000 0.000000 0.000000 1.000000 255 182 0
-0.263158 0.473684 0.000000 0.000000 0.000000 1.000000 255 183 0
-0.157895 0.473684 0.000000 0.000000 0.000000 1.000000 255 184 0
-0.052632 0.473684 0.000000 0.000000 0.000000 1.000000 255 184 0
0.052632 0.473684 0.000000 0.000000 0.000000 1.000000 255 185 0
0.157895 0.473684 0.000000 0.000000 0.000000 1.000000 255 185 0
0.263158 0.473684 0.000000 0.000000 0.000000 1.000000 255 186 0
0.368421 0.473684 0.000000 0.000000 0.000000 1.000000 255 187 0
0.473684 0.473684 0.000000 0.000000 0.000000 1.000000 255 187 0
0.578947 0.473684 0.000000 0.000000 0.000000 1.000000 255 188 0
0.684211 0.473684 0.000000 0.000000 0.000000 1.000000 255 189 0
0.789474 0.473684 0.000000 0.000000 0.000000 1.000000 255 189 0
0.894737 0.473684 0.000000 0.000000 0.000000 1.000000 255 190 0
1.000000 0.473684 0.000000 0.000000 0.000000 1.000000 255 191 0
-1.000000 0.578947 0.000000 0.000000 0.000000 1.000000 255 191 0
-0.894737 0.578947 0.000000 0.000000 0.000000 1.000000 255 192 0
-0.789474 0.578947 0.000000 0.000000 0.000000 1.000000 255 193 0
-0.684211 0.578947 0.000000 0.000000 0.000000 1.000000 255 193 0
-0.578947 0.578947 0.000000 0.000000 0.000000 1.000000 255 194 0
-0.473684 0.578947 0.000000 0.000000 0.000000 1.000000 255 194 0
-0.368421 0.578947 0.000000 0.000000 0.000000 1.000000 255 195 0
-0.263158 0.578947 0.000000 0.000000 0.000000 1.000000 255 196 0
-0.157895 0.578947 0.000000 0.000000 0.000000 1.000000 255 196 0
-0.052632 0.578947 0.000000 0.000000 0.000000 1.000000 255 197 0
0.052632 0.578947 0.000000 0.000000 0.000000 1.000000 255 198 0
0.157895 0.578947 0.000000 0.000000 0.000000 1.000000 255 198 0
0.263158 0.578947 0.000000 0.000000 0.000000 1.000000 255 199 0
0.368421 0.578947 0.000000 0.000000 0.000000 1.000000 255 200 0
0.473684 0.578947 0.000000 0.000000 0.000000 1.000000 255 200 0
0.578947 0.578947 0.000000 0.000000 0.000000 1.000000 255 201 0
0.684211 0.578947 0.000000 0.000000 0.000000 1.000000 255 201 0
0.789474 0.578947 0.000000 0.000000 0.000000 1.000000 255 202 0
0.894737 0.578947 0.000000 0.000000 0.000000 1.000000 255 203 0
1.000000 0.578947 0.000000 0.000000 0.000000 1.000000 255 203 0
-1.000000 0.684211 0.000000 0.000000 0.000000 1.000000 255 204 0
-0.894737 0.684211 0.000000 0.000000 0.000000 1.000000 255 205 0
-0.789474 0.684211 0.000000 0.000000 0.000000 1.000000 255 205 0
-0.684211 0.684211 0.000000 0.000000 0.000000 1.000000 255 206 0
-0.578947 0.684211 0.000000 0.000000 0.000000 1.000000 255 207 0
-0.473684 0.684211 0.000000 0.000000 0.000000 1.000000 255 207 0
-0.368421 0.684211 0.000000 0.000000 0.000000 1.000000 255 208 0
-0.263158 0.684211 0.000000 0.000000 0.000000 1.000000 255 208 0
-0.157895 0.684211 0.000000 0.000000 0.000000 1.000000 255 209 0
-0.052632 0.684211 0.000000 0.000000 0.000000 1.000000 255 210 0
0.052632 0.684211 0.000000 0.000000 0.000000 1.000000 255 210 0
0.157895 0.684211 0.000000 0.000000 0.000000 1.000000 255 211 0
0.263158 0.684211 0.000000 0.000000 0.000000 1.000000 255 212 0
0.368421 0.684211 0.000000 0.000000 0.000000 1.000000 255 212 0
0.473684 0.684211 0.000000 0.000000 0.000000 1.000000 255 213 0
0.578947 0.684211 0.000000 0.000000 0.000000 1.000000 255 214 0
0.684211 0.684211 0.000000 0.000000 0.000000 1.000000 255 214 0
0.789474 0.684211 0.000000 0.000000 0.000000 1.000000 255 215 0
0.894737 0.684211 0.000000 0.000000 0.000000 1.000000 255 216 0
1.000000 0.684211 0.000000 0.000000 0.000000 1.000000 255 216 0
-1.000000 0.789474 0.000000 0.000000 0.000000 1.000000 255 217 0
-0.894737 0.789474 0.000000 0.000000 0.000000 1.000000 255 217 0
-0.789474 0.789474 0.000000 0.000000 0.000000 1.000000 255 218 0
-0.684211 0.789474 0.000000 0.000000 0.000000 1.000000 255 219 0
-0.578947 0.789474 0.000000 0.000000 0.000000 1.000000 255 219 0
-0.473684 0.789474 0.000000 0.000000 0.000000 1.000000 255 220 0
-0.368421 0.789474 0.000000 0.000000 0.000000 1.000000 255 221 0
-0.263158 0.789474 0.000000 0.000000 0.000000 1.000000 255 221 0
-0.157895 0.789474 0.000000 0.000000 0.000000 1.000000 255 222 0
-0.052632 0.789474 0.000000 0.000000 0.000000 1.000000 255 223 0
0.052632 0.789474 0.000000 0.000000 0.000000 1.000000 255 223 0
0.157895 0.789474 0.000000 0.000000 0.000000 1.000000 255 224 0
0.263158 0.789474 0.000000 0.000000 0.000000 1.000000 255 224 0
0.368421 0.789474 0.000000 0.000000 0.000000 1.000000 255 225 0
0.473684 0.789474 0.000000 0.000000 0.000000 1.000000 255 226 0
0.578947 0.789474 0.000000 0.000000 0.000000 1.000000 255 226 0
0.684211 0.789474 0.000000 0.000000 0.000000 1.000000 255 227 0
0.789474 0.789474 0.000000 0.000000 0.000000 1.000000 255 228 0
0.894737 0.789474 0.000000 0.000000 0.000000 1.000000 255 228 0
1.000000 0.789474 0.000000 0.000000 0.000000 1.000000 255 229 0
-1.000000 0.894737 0.000000 0.000000 0.000000 1.000000 255 230 0
-0.894737 0.894737 0.000000 0.000000 0.000000 1.000000 255 230 0
-0.789474 0.894737 0.000000 0.000000 0.000000 1.000000 255 231 0
-0.684211 0.894737 0.000000 0.000000 0.000000 1.000000 255 231 0
-0.578947 0.894737 0.000000 0.000000 0.000000 1.000000 255 232 0
-0.473684 0.894737 0.000000 0.000000 0.000000 1.000000 255 233 0
-0.368421 0.894737 0.000000 0.000000 0.000000 1.000000 255 233 0
-0.263158 0.894737 0.000000 0.000000 0.000000 1.000000 255 234 0
-0.157895 0.894737 0.000000 0.000000 0.000000 1.000000 255 235 0
-0.052632 0.894737 0.000000 0.000000 0.000000 1.000000 255 235 0
0.052632 0.894737 0.000000 0.000000 0.000000 1.000000 255 236 0
0.157895 0.894737 0.000000 0.000000 0.000000 1.000000 255 237 0
0.263158 0.894737 0.000000 0.000000 0.000000 1.000000 255 237 0
0.368421 0.894737 0.000000 0.000000 0.000000 1.000000 255 238 0
0.473684 0.894737 0.000000 0.000000 0.000000 1.000000 255 239 0
0.578947 0.894737 0.000000 0.000000 0.000000 1.000000 255 239 0
0.684211 0.894737 0.000000 0.000000 0.000000 1.000000 255 240 0
0.789474 0.894737 0.000000 0.000000 0.000000 1.000000 255 240 0
0.894737 0.894737 0.000000 0.000000 0.000000 1.000000 255 241 0
1.000000 0.894737 0.000000 0.000000 0.000000 1.000000 255 242 0
-1.000000 1.000000 0.000000 0.000000 0.000000 1.000000 255 242 0
-0.894737 1.000000 0.000000 0.000000 0.000000 1.000000 255 243 0
-0.789474 1.000000 0.000000 0.000000 0.000000 1.000000 255 244 0
-0.684211 1.000000 0.000000 0.000000 0.000000 1.000000 255 244 0
-0.578947 1.000000 0.000000 0.000000 0.000000 1.000000 255 245 0
-0.473684 1.000000 0.000000 0.000000 0.000000 1.000000 255 246 0
-0.368421 1.000000 0.000000 0.000000 0.000000 1.000000 255 246 0
-0.263158 1.000000 0.000000 0.000000 0.000000 1.000000 255 247 0
-0.157895 1.000000 0.000000 0.000000 0.000000 1.000000 255 247 0
-0.052632 1.000000 0.000000 0.000000 0.000000 1.000000 255 248 0
0.052632 1.000000 0.000000 0.000000 0.000000 1.000000 255 249 0
0.157895 1.000000 0.000000 0.000000 0.000000 1.000000 255 249 0
0.263158 1.000000 0.000000 0.000000 0.000000 1.000000 255 250 0
0.368421 1.000000 0.000000 0.000000 0.000000 1.000000 255 251 0
0.473684 1.000000 0.000000 0.000000 0.000000 1.000000 255 251 0
0.578947 1.000000 0.000000 0.000000 0.000000 1.000000 255 252 0
0.684211 1.000000 0.000000 0.000000 0.000000 1.000000 255 253 0
0.789474 1.000000 0.000000 0.000000 0.000000 1.000000 255 253 0
0.894737 1.000000 0.000000 0.000000 0.000000 1.000000 255 254 0
1.000000 1.000000 0.000000 0.000000 0.000000 1.000000 255 255 0
